<?xml version="1.0" encoding="UTF-8" standalone="no"?>
<svg
   xmlns:dc="http://purl.org/dc/elements/1.1/"
   xmlns:cc="http://creativecommons.org/ns#"
   xmlns:rdf="http://www.w3.org/1999/02/22-rdf-syntax-ns#"
   xmlns:svg="http://www.w3.org/2000/svg"
   xmlns="http://www.w3.org/2000/svg"
   xmlns:sodipodi="http://sodipodi.sourceforge.net/DTD/sodipodi-0.dtd"
   xmlns:inkscape="http://www.inkscape.org/namespaces/inkscape"
   sodipodi:docname="enclosure-slotted.svg"
   inkscape:version="1.0beta2 (2b71d25, 2019-12-03)"
   id="svg8"
   version="1.1"
   viewBox="0 0 508 304.80002"
   height="12in"
   width="20in">
  <defs
     id="defs2" />
  <sodipodi:namedview
     inkscape:document-rotation="0"
     showguides="false"
     inkscape:snap-bbox-edge-midpoints="true"
     inkscape:bbox-paths="true"
     inkscape:bbox-nodes="true"
     inkscape:snap-bbox="true"
     inkscape:window-maximized="0"
     inkscape:window-y="23"
     inkscape:window-x="1680"
     inkscape:window-height="1395"
     inkscape:window-width="2560"
     units="in"
     showgrid="true"
     inkscape:current-layer="layer1"
     inkscape:document-units="in"
     inkscape:cy="899.98446"
     inkscape:cx="991.61394"
     inkscape:zoom="8"
     inkscape:pageshadow="2"
     inkscape:pageopacity="0.0"
     borderopacity="1.0"
     bordercolor="#666666"
     pagecolor="#ffffff"
     id="base">
    <inkscape:grid
       empspacing="4"
       spacingy="0.63500002"
       spacingx="0.63500002"
       units="in"
       id="grid129"
       type="xygrid" />
  </sodipodi:namedview>
  <metadata
     id="metadata5">
    <rdf:RDF>
      <cc:Work
         rdf:about="">
        <dc:format>image/svg+xml</dc:format>
        <dc:type
           rdf:resource="http://purl.org/dc/dcmitype/StillImage" />
        <dc:title />
      </cc:Work>
    </rdf:RDF>
  </metadata>
  <g
     transform="translate(0,-144.59998)"
     id="layer1"
     inkscape:groupmode="layer"
     inkscape:label="Layer 1">
    <path
       inkscape:connector-curvature="0"
       id="rect2272"
       d="m 96.520003,159.83998 v 4.44469 5.08031 h -4.445207 v 104.1399 h 4.445207 v 5.07979 4.44521 H 328.93011 v -4.44521 -5.07979 h 4.44469 v -104.1399 h -4.44469 v -5.08031 -4.44469 z"
       style="opacity:1;fill:#000000;fill-opacity:1;fill-rule:nonzero;stroke:none;stroke-width:0.127;stroke-linecap:round;stroke-linejoin:miter;stroke-miterlimit:4;stroke-dasharray:none;stroke-dashoffset:0;stroke-opacity:1;paint-order:fill markers stroke" />
    <path
       inkscape:connector-curvature="0"
       id="rect3448"
       d="m 96.520003,288.74478 v 2.53989 h -4.445207 v 15.2399 h 4.445207 v 2.54041 H 328.93011 v -2.54041 h 4.44469 v -15.2399 h -4.44469 v -2.53989 z"
       style="opacity:1;fill:#000080;fill-opacity:1;fill-rule:nonzero;stroke:none;stroke-width:0.127;stroke-linecap:round;stroke-linejoin:miter;stroke-miterlimit:4;stroke-dasharray:none;stroke-dashoffset:0;stroke-opacity:1;paint-order:fill markers stroke" />
    <path
       inkscape:connector-curvature="0"
       id="rect519"
       d="m 95.250013,355.37724 v 7.23935 h -4.445207 v 15.23989 h 4.445207 v 2.41278 H 327.66012 v -2.41278 h 4.44469 v -15.23989 h -4.44469 v -7.23935 z"
       style="opacity:1;fill:#800080;fill-opacity:1;fill-rule:nonzero;stroke:none;stroke-width:0.127;stroke-linecap:round;stroke-linejoin:miter;stroke-miterlimit:4;stroke-dasharray:none;stroke-dashoffset:0;stroke-opacity:1;paint-order:fill markers stroke" />
    <circle
       r="6.9850001"
       transform="scale(-1,1)"
       cy="366.80746"
       cx="-125.72991"
       id="path545"
       style="opacity:1;fill:#008080;fill-opacity:1;fill-rule:nonzero;stroke:none;stroke-width:0.127;stroke-linecap:round;stroke-linejoin:miter;stroke-miterlimit:4;stroke-dasharray:none;stroke-dashoffset:0;stroke-opacity:1;paint-order:fill markers stroke" />
    <circle
       transform="scale(-1,1)"
       style="opacity:1;fill:#008080;fill-opacity:1;fill-rule:nonzero;stroke:none;stroke-width:0.127;stroke-linecap:round;stroke-linejoin:miter;stroke-miterlimit:4;stroke-dasharray:none;stroke-dashoffset:0;stroke-opacity:1;paint-order:fill markers stroke"
       id="circle549"
       cx="-105.4099"
       cy="366.80746"
       r="6.9850001" />
    <rect
       transform="scale(-1,1)"
       y="362.07669"
       x="-260.98489"
       height="14.3002"
       width="13.97"
       id="rect551"
       style="opacity:1;fill:#008080;fill-opacity:1;fill-rule:nonzero;stroke:none;stroke-width:0.134764;stroke-linecap:round;stroke-linejoin:miter;stroke-miterlimit:4;stroke-dasharray:none;stroke-dashoffset:0;stroke-opacity:1;paint-order:fill markers stroke" />
    <text
       id="text108"
       y="378.13995"
       x="99.659256"
       style="font-style:normal;font-variant:normal;font-weight:500;font-stretch:normal;font-size:4.23333px;line-height:125%;font-family:'Microgramma D Extended';-inkscape-font-specification:'Microgramma D Extended Medium';letter-spacing:0px;word-spacing:0px;fill:#ffff00;fill-opacity:1;stroke:none;stroke-width:0.264583px;stroke-linecap:butt;stroke-linejoin:miter;stroke-opacity:1"
       xml:space="preserve"><tspan
         style="font-style:normal;font-variant:normal;font-weight:500;font-stretch:normal;font-size:4.23333px;font-family:'Microgramma D Extended';-inkscape-font-specification:'Microgramma D Extended Medium';fill:#ffff00;stroke-width:0.264583px"
         y="378.13995"
         x="99.659256"
         id="tspan106"
         sodipodi:role="line">video</tspan></text>
    <text
       xml:space="preserve"
       style="font-style:normal;font-variant:normal;font-weight:500;font-stretch:normal;font-size:4.23333px;line-height:125%;font-family:'Microgramma D Extended';-inkscape-font-specification:'Microgramma D Extended Medium';letter-spacing:0px;word-spacing:0px;fill:#ffff00;fill-opacity:1;stroke:none;stroke-width:0.264583px;stroke-linecap:butt;stroke-linejoin:miter;stroke-opacity:1"
       x="119.87614"
       y="378.13995"
       id="text112"><tspan
         sodipodi:role="line"
         id="tspan110"
         x="119.87614"
         y="378.13995"
         style="font-style:normal;font-variant:normal;font-weight:500;font-stretch:normal;font-size:4.23333px;font-family:'Microgramma D Extended';-inkscape-font-specification:'Microgramma D Extended Medium';fill:#ffff00;stroke-width:0.264583px">audio</tspan></text>
    <path
       inkscape:connector-curvature="0"
       d="m 93.9799,316.68447 v 5.08031 h -4.445212 v 25.4 H 93.9799 v 2.53989 h 232.41011 v -2.53989 h 4.44468 v -25.4 h -4.44468 v -5.08031 z"
       style="opacity:1;fill:#445500;fill-opacity:1;fill-rule:nonzero;stroke:none;stroke-width:0.127;stroke-linecap:round;stroke-linejoin:miter;stroke-miterlimit:4;stroke-dasharray:none;stroke-dashoffset:0;stroke-opacity:1;paint-order:fill markers stroke"
       id="rect114" />
    <rect
       style="opacity:1;fill:#ff6600;fill-opacity:1;fill-rule:nonzero;stroke:none;stroke-width:0.127;stroke-linecap:round;stroke-linejoin:miter;stroke-miterlimit:4;stroke-dasharray:none;stroke-dashoffset:0;stroke-opacity:1;paint-order:fill markers stroke"
       id="rect382"
       width="2.7940001"
       height="2.7940001"
       x="196.08788"
       y="342.59259" />
    <text
       id="text121"
       y="175.07999"
       x="355.60001"
       style="font-style:normal;font-variant:normal;font-weight:500;font-stretch:normal;font-size:4.23333px;line-height:125%;font-family:'Microgramma D Extended';-inkscape-font-specification:'Microgramma D Extended Medium';letter-spacing:0px;word-spacing:0px;fill:#000000;fill-opacity:1;stroke:none;stroke-width:0.264583px;stroke-linecap:butt;stroke-linejoin:miter;stroke-opacity:1"
       xml:space="preserve" />
    <text
       id="text125"
       y="345.20032"
       x="148.94975"
       style="font-style:normal;font-variant:normal;font-weight:bold;font-stretch:normal;font-size:4.23333px;line-height:125%;font-family:'Microgramma D Extended';-inkscape-font-specification:'Microgramma D Extended Bold';letter-spacing:0px;word-spacing:0px;fill:#aad400;fill-opacity:1;stroke:none;stroke-width:0.264583px;stroke-linecap:butt;stroke-linejoin:miter;stroke-opacity:1"
       xml:space="preserve"><tspan
         style="font-style:normal;font-variant:normal;font-weight:500;font-stretch:normal;font-family:'Microgramma D Extended';-inkscape-font-specification:'Microgramma D Extended Medium';fill:#aad400;stroke-width:0.264583px"
         y="345.20032"
         x="148.94975"
         id="tspan123"
         sodipodi:role="line">power indicator</tspan></text>
    <text
       xml:space="preserve"
       style="font-style:normal;font-variant:normal;font-weight:bold;font-stretch:normal;font-size:4.23333px;line-height:125%;font-family:'Microgramma D Extended';-inkscape-font-specification:'Microgramma D Extended Bold';letter-spacing:0px;word-spacing:0px;fill:#aad400;fill-opacity:1;stroke:none;stroke-width:0.264583px;stroke-linecap:butt;stroke-linejoin:miter;stroke-opacity:1"
       x="199.72856"
       y="345.20032"
       id="text129"><tspan
         sodipodi:role="line"
         id="tspan127"
         x="199.72856"
         y="345.20032"
         style="font-style:normal;font-variant:normal;font-weight:500;font-stretch:normal;font-family:'Microgramma D Extended';-inkscape-font-specification:'Microgramma D Extended Medium';fill:#aad400;stroke-width:0.264583px">reset</tspan></text>
    <g
       transform="matrix(1.036005,0,0,1.036005,-41.696631,187.0819)"
       id="text137"
       style="font-style:normal;font-variant:normal;font-weight:bold;font-stretch:normal;font-size:17.2889px;line-height:125%;font-family:SignPainter;-inkscape-font-specification:'SignPainter Bold';letter-spacing:0px;word-spacing:0px;fill:#aad400;fill-opacity:1;stroke:none;stroke-width:0.255388px;stroke-linecap:butt;stroke-linejoin:miter;stroke-opacity:1"
       aria-label="Amethyst">
      <path
         inkscape:connector-curvature="0"
         id="path139"
         style="font-size:17.2889px;fill:#aad400;stroke-width:0.255388px"
         d="m 307.71176,140.60522 c -0.0519,0.51867 -0.0692,0.96818 -0.0692,1.31396 0.0173,0.98547 0.29391,1.41769 0.63969,1.57329 0.1556,0.0692 0.25933,0.0173 0.25933,-0.1556 0.0346,-0.91631 0.13831,-1.8672 0.25934,-2.76623 0.29391,0.0173 0.53595,0.0519 0.74342,0.10374 0.1556,0.0519 0.22476,0 0.19018,-0.1556 -0.0692,-0.36307 -0.25933,-0.70885 -0.778,-0.88174 0.32849,-1.90178 0.81258,-3.66525 1.26209,-5.03108 0.1556,-0.4668 0.17289,-0.84715 0,-1.26209 -0.17289,-0.43222 -0.22476,-0.4668 -0.39765,-0.70884 -0.17289,-0.24205 -0.34577,-0.24205 -0.6224,-0.0173 -1.83262,1.50413 -4.23578,4.92734 -5.58432,7.27863 -0.27662,-0.0173 -0.53596,-0.0519 -0.778,-0.0864 -0.25933,-0.0346 -0.29391,0.0346 -0.20747,0.25933 0.0519,0.12103 0.19018,0.38036 0.57054,0.58783 -0.20747,0.38035 -0.36307,0.72613 -0.4668,0.98546 -0.36307,0.96818 -0.29392,1.48685 -0.0865,1.76347 0.0865,0.12103 0.24205,0.12103 0.3112,-0.0346 0.34578,-0.76072 0.79529,-1.60787 1.31396,-2.48961 0.81258,0.0173 2.21298,-0.19018 3.4405,-0.27662 z m -2.78352,-0.76071 c 1.31396,-2.05738 2.88725,-4.14934 4.20121,-5.6189 -0.53596,1.34853 -1.02005,3.52694 -1.27938,5.32499 -0.81258,0.0173 -1.86721,0.20746 -2.92183,0.29391 z" />
      <path
         inkscape:connector-curvature="0"
         id="path141"
         style="font-size:17.2889px;fill:#aad400;stroke-width:0.255388px"
         d="m 312.66341,138.40953 c 0.25933,-0.69156 0.3112,-1.36583 0.0173,-1.84992 -0.10373,-0.17289 -0.24205,-0.19018 -0.36307,0 -1.0892,1.62516 -2.35129,4.0629 -2.71436,5.1521 -0.29391,0.88174 -0.20747,1.45227 0.17289,1.78076 0.1556,0.13831 0.25933,0.0692 0.32849,-0.0864 0.69156,-1.62515 1.52142,-3.23302 2.54147,-4.33951 1.10649,-1.21023 1.95365,-1.67703 2.16112,-1.59058 0.34577,0.12102 -1.52143,2.50689 -2.09196,3.94187 -0.50138,1.2448 -0.25934,1.91907 0.0346,2.1784 0.1556,0.17289 0.29392,0.12103 0.39765,-0.0864 0.72613,-1.62516 1.57329,-3.2849 3.00827,-4.71988 1.12378,-1.12378 1.7116,-1.31395 1.84992,-1.26209 0.25933,0.0864 -1.27938,2.02281 -1.91907,3.45779 -0.63969,1.41769 -0.0864,2.61062 1.41769,2.61062 1.00275,0 2.10925,-0.86444 2.59334,-1.84991 0.19017,-0.39765 0.24204,-0.96818 0.1556,-1.0892 -0.0864,-0.12103 -0.22476,-0.12103 -0.3112,0.0346 -0.67427,1.21023 -1.45227,2.3513 -2.16112,2.36859 -0.6224,0.0173 -0.86445,-0.77801 -0.38036,-1.76347 0.43223,-0.86445 1.27938,-2.00552 1.59058,-2.78352 0.34578,-0.86445 0.20747,-1.88449 -0.41493,-1.90178 -0.57053,-0.0173 -1.72889,0.79529 -2.55876,1.60787 0.22476,-0.76071 -0.0864,-1.67703 -0.67427,-1.69432 -0.6224,-0.0173 -1.91907,1.00276 -2.67978,1.8845 z" />
      <path
         inkscape:connector-curvature="0"
         id="path143"
         style="font-size:17.2889px;fill:#aad400;stroke-width:0.255388px"
         d="m 321.28112,140.36317 c 1.21023,0.98547 2.36859,0.53596 3.21574,-0.50137 0.72614,-0.88174 0.86445,-1.93636 0.55325,-2.3513 -0.27662,-0.38035 -0.58782,-0.63969 -1.02005,-0.89902 -0.86444,-0.50138 -2.62791,0.39764 -3.75169,2.62792 -1.12378,2.23027 -0.36307,4.39138 1.83262,4.3568 1.33125,-0.0173 2.6625,-0.81258 3.38863,-1.8672 0.3112,-0.44951 0.36307,-0.9336 0.29391,-1.07191 -0.0691,-0.1556 -0.20746,-0.1556 -0.29391,-0.0173 -0.74342,1.14107 -2.00551,2.52418 -3.44049,2.45502 -0.91632,-0.0519 -1.33125,-1.14106 -0.77801,-2.73165 z m 0.1556,-0.38035 c 0.0346,-0.0865 0.0865,-0.19018 0.13832,-0.29391 0.81258,-1.64245 2.24756,-2.67979 2.61062,-2.38587 0.24205,0.19017 -0.13831,1.0892 -0.69155,1.81533 -0.50138,0.65698 -1.21023,1.40041 -2.05739,0.86445 z" />
      <path
         inkscape:connector-curvature="0"
         id="path145"
         style="font-size:17.2889px;fill:#aad400;stroke-width:0.255388px"
         d="m 327.35575,136.59419 c -0.74343,1.36583 -1.46956,2.81809 -1.83263,3.68254 -0.82987,1.98823 0.0865,3.26761 1.22752,3.30218 1.38311,0.0519 2.52418,-1.46955 2.74893,-1.97093 0.17289,-0.39765 0.25934,-0.70885 0.17289,-0.98547 -0.0691,-0.24205 -0.25933,-0.20747 -0.36306,0 -0.63969,1.29667 -1.62516,2.52418 -2.40316,2.4896 -0.72614,-0.0346 -0.91632,-1.10649 -0.34578,-2.36858 0.65698,-1.45227 1.64245,-3.12929 2.31671,-4.28765 0.43223,-0.0692 0.96818,-0.12102 1.34854,-0.0692 0.25933,0 0.32849,-0.12102 0.20747,-0.32849 -0.13832,-0.22475 -0.39765,-0.53595 -1.07192,-0.51866 0.41494,-0.89903 0.41494,-1.46956 0.22476,-1.95365 -0.0865,-0.20747 -0.25933,-0.22476 -0.41494,0 -0.29391,0.38035 -0.778,1.19293 -1.31395,2.14382 -0.4668,0.0519 -0.95089,0.0865 -1.43498,0.0692 -0.25934,-0.0173 -0.36307,0.10373 -0.19018,0.34578 0.13831,0.19018 0.53596,0.44951 1.12378,0.44951 z" />
      <path
         inkscape:connector-curvature="0"
         id="path147"
         style="font-size:17.2889px;fill:#aad400;stroke-width:0.255388px"
         d="m 335.80733,141.74629 c 0.25933,-0.51867 0.25933,-0.88174 0.17289,-1.07191 -0.0692,-0.13832 -0.24205,-0.13832 -0.3112,0.0173 -0.53596,1.1065 -1.48685,2.3513 -2.1957,2.38588 -0.63969,0.0346 -0.72613,-0.77801 -0.29391,-1.78076 0.39765,-0.89903 1.22752,-2.16112 1.60787,-2.92183 0.44951,-0.88174 -0.0864,-1.74618 -0.67427,-1.81534 -0.4668,-0.0519 -1.36582,0.51867 -2.07467,1.21023 0.74343,-1.15836 1.65974,-2.55876 2.07467,-3.25032 0.65698,-1.0892 0.70885,-1.95365 0.48409,-2.45503 -0.0864,-0.20746 -0.25933,-0.22475 -0.41493,-0.0173 -1.4004,1.74619 -4.9965,7.83189 -5.60161,9.56078 -0.36307,1.03733 -0.20747,1.52142 0.0692,1.83262 0.10373,0.12102 0.22475,0.0865 0.29391,-0.0691 0.41493,-1.05463 1.05462,-2.26485 1.67702,-3.2849 1.00276,-1.64245 2.88725,-2.81809 3.1293,-2.67978 0.27662,0.1556 -1.22752,1.95365 -1.79805,3.63067 -0.51867,1.50414 -0.1556,2.55876 1.29667,2.55876 1.02005,0 2.07467,-0.86444 2.55876,-1.84991 z" />
      <path
         inkscape:connector-curvature="0"
         id="path149"
         style="font-size:17.2889px;fill:#aad400;stroke-width:0.255388px"
         d="m 342.09969,141.64255 c 0.29391,-0.44951 0.34577,-0.84715 0.3112,-1.00275 -0.0346,-0.17289 -0.19018,-0.1556 -0.27663,-0.0346 -0.69155,0.95089 -1.7116,1.93636 -3.06014,2.66249 0.72614,-1.67702 1.78076,-3.75169 2.29943,-4.75445 0.44951,-0.88173 0.3112,-1.62516 0.0692,-1.93636 -0.1556,-0.13831 -0.27663,-0.10373 -0.43223,0.12102 -0.60511,0.88174 -1.34853,2.43774 -2.09196,3.71712 -0.88173,1.50414 -1.74618,2.61063 -2.42044,2.55876 -0.39765,-0.0346 -0.43223,-0.63969 -0.0865,-1.48685 0.32849,-0.81257 0.70885,-1.52142 1.33125,-2.52418 0.63969,-1.02004 0.74342,-1.74618 0.32849,-2.29942 -0.12103,-0.17289 -0.29391,-0.19018 -0.43223,0 -1.12378,1.556 -1.97093,3.2676 -2.35129,4.37409 -0.39764,1.14107 -0.36307,2.40316 0.88174,2.5069 0.69155,0.0519 1.34853,-0.39765 1.88449,-0.95089 -0.19018,0.41493 -0.36307,0.84715 -0.53596,1.2448 -1.7116,0.67427 -3.18116,1.7116 -3.69983,3.2676 -0.34578,1.02005 0,1.62516 0.34578,2.14383 0.32849,0.48409 0.65698,0.48409 0.98547,0.36307 1.43498,-0.55325 2.66249,-3.33676 3.63067,-5.65348 1.43498,-0.58782 2.64521,-1.2448 3.31948,-2.31672 z m -4.87548,2.92183 c -1.07191,2.54147 -2.4896,4.42597 -2.71436,4.09748 -0.3112,-0.43223 0.4668,-2.80081 2.71436,-4.09748 z" />
      <path
         inkscape:connector-curvature="0"
         id="path151"
         style="font-size:17.2889px;fill:#aad400;stroke-width:0.255388px"
         d="m 342.58378,140.4842 c -0.0173,-0.13831 -0.0173,-0.27663 -0.0346,-0.41494 -0.0173,-0.27662 -0.1556,-0.34578 -0.36307,-0.17289 -0.58782,0.48409 -0.63969,1.62516 -0.22476,2.40316 0.58783,1.07192 1.55601,1.33125 2.55876,1.29667 1.22752,-0.0519 2.40316,-0.70884 3.06014,-1.90178 0.29391,-0.53595 0.3112,-0.98547 0.24205,-1.14107 -0.0692,-0.13831 -0.24205,-0.19018 -0.32849,0 -0.43222,0.9336 -1.15836,1.97094 -2.31672,2.40316 0.6224,-0.41493 0.74343,-1.14107 0.778,-1.81533 0.0519,-1.19294 -0.27662,-2.54147 -0.1556,-4.13206 0.0692,-0.12102 0.12103,-0.22475 0.19018,-0.32848 0.22476,-0.39765 0.3112,-0.58783 0.13831,-0.76072 -0.1556,-0.1556 -0.55324,-0.0864 -0.9336,0.25934 -0.36306,0.32849 -0.53595,0.65698 -0.6224,1.33124 -0.50138,0.88174 -1.27938,2.00552 -1.98822,2.9737 z m 1.95364,-1.86721 c 0.0692,1.38312 0.32849,4.09748 -0.4668,4.33952 -0.57053,0.17289 -1.07191,-0.53595 -1.33124,-1.53871 0.65697,-0.9336 1.29666,-1.88449 1.79804,-2.80081 z" />
      <path
         inkscape:connector-curvature="0"
         id="path153"
         style="font-size:17.2889px;fill:#aad400;stroke-width:0.255388px"
         d="m 349.30457,136.59419 c -0.74342,1.36583 -1.46955,2.81809 -1.83262,3.68254 -0.82987,1.98823 0.0864,3.26761 1.22751,3.30218 1.38312,0.0519 2.52418,-1.46955 2.74894,-1.97093 0.17289,-0.39765 0.25933,-0.70885 0.17289,-0.98547 -0.0692,-0.24205 -0.25933,-0.20747 -0.36307,0 -0.63969,1.29667 -1.62516,2.52418 -2.40316,2.4896 -0.72613,-0.0346 -0.91631,-1.10649 -0.34578,-2.36858 0.65698,-1.45227 1.64245,-3.12929 2.31672,-4.28765 0.43222,-0.0692 0.96818,-0.12102 1.34853,-0.0692 0.25934,0 0.32849,-0.12102 0.20747,-0.32849 -0.13831,-0.22475 -0.39764,-0.53595 -1.07191,-0.51866 0.41493,-0.89903 0.41493,-1.46956 0.22475,-1.95365 -0.0864,-0.20747 -0.25933,-0.22476 -0.41493,0 -0.29391,0.38035 -0.778,1.19293 -1.31396,2.14382 -0.4668,0.0519 -0.95089,0.0865 -1.43498,0.0692 -0.25933,-0.0173 -0.36306,0.10373 -0.19018,0.34578 0.13832,0.19018 0.53596,0.44951 1.12378,0.44951 z" />
    </g>
    <text
       id="text158"
       y="339.18756"
       x="322.84174"
       style="font-style:normal;font-variant:normal;font-weight:bold;font-stretch:normal;font-size:4.93889px;line-height:125%;font-family:'Microgramma D Extended';-inkscape-font-specification:'Microgramma D Extended Bold';letter-spacing:0px;word-spacing:0px;fill:#aad400;fill-opacity:1;stroke:none;stroke-width:0.264583px;stroke-linecap:butt;stroke-linejoin:miter;stroke-opacity:1"
       xml:space="preserve"><tspan
         style="font-size:3.175px;text-align:end;text-anchor:end;fill:#aad400;stroke-width:0.264583px"
         y="339.18756"
         x="322.84174"
         id="tspan156"
         sodipodi:role="line">16kb colour video      system</tspan></text>
    <text
       xml:space="preserve"
       style="font-style:normal;font-variant:normal;font-weight:500;font-stretch:normal;font-size:4.23333px;line-height:125%;font-family:'Microgramma D Extended';-inkscape-font-specification:'Microgramma D Extended Medium';text-align:center;letter-spacing:0px;word-spacing:0px;text-anchor:middle;fill:#ffff00;fill-opacity:1;stroke:none;stroke-width:0.264583px;stroke-linecap:butt;stroke-linejoin:miter;stroke-opacity:1"
       x="254.00871"
       y="360.14828"
       id="text870"><tspan
         sodipodi:role="line"
         id="tspan868"
         x="254.00871"
         y="360.14828"
         style="font-style:normal;font-variant:normal;font-weight:500;font-stretch:normal;font-size:4.23333px;font-family:'Microgramma D Extended';-inkscape-font-specification:'Microgramma D Extended Medium';text-align:center;text-anchor:middle;fill:#ffff00;stroke-width:0.264583px">power/serial</tspan></text>
    <path
       sodipodi:nodetypes="sssssssccss"
       inkscape:connector-curvature="0"
       id="rect71"
       d="m 469.20144,212.92577 v 19.05 c 0,4.22148 -3.39852,7.62 -7.62,7.62 h -113.03 c -4.22148,0 -7.62,-3.39852 -7.62,-7.62 v -16.51 c 0,-1.905 1.27,-3.175 3.175,-3.175 h 81.28 c 2.54,0 2.54,-6.985 5.08,-6.985 h 31.115 c 4.22148,0 7.62,3.39852 7.62,7.62 z"
       style="fill:#008000;fill-opacity:1;fill-rule:nonzero;stroke:none;stroke-width:0.127;stroke-linecap:round;stroke-linejoin:miter;stroke-miterlimit:4;stroke-dasharray:none;stroke-dashoffset:0;stroke-opacity:1;paint-order:fill markers stroke" />
    <rect
       transform="matrix(0,-1,-1,0,0,0)"
       style="fill:#00ff00;fill-opacity:1;fill-rule:nonzero;stroke:none;stroke-width:0.128802;stroke-linecap:round;stroke-linejoin:miter;stroke-miterlimit:4;stroke-dasharray:none;stroke-dashoffset:0;stroke-opacity:1;paint-order:fill markers stroke"
       id="rect73"
       width="4.572"
       height="103.632"
       x="-237.11929"
       y="-456.88245" />
    <rect
       transform="matrix(0,-1,-1,0,0,0)"
       style="fill:#00ff00;fill-opacity:1;fill-rule:nonzero;stroke:none;stroke-width:0.127;stroke-linecap:round;stroke-linejoin:miter;stroke-miterlimit:4;stroke-dasharray:none;stroke-dashoffset:0;stroke-opacity:1;paint-order:fill markers stroke"
       id="rect75"
       width="14.732"
       height="4.5720005"
       x="-229.81677"
       y="-347.97992" />
    <rect
       transform="matrix(0,-1,-1,0,0,0)"
       y="-456.88245"
       x="-212.35428"
       height="24.892"
       width="4.572"
       id="rect77"
       style="fill:#00ff00;fill-opacity:1;fill-rule:nonzero;stroke:none;stroke-width:0.128802;stroke-linecap:round;stroke-linejoin:miter;stroke-miterlimit:4;stroke-dasharray:none;stroke-dashoffset:0;stroke-opacity:1;paint-order:fill markers stroke" />
    <rect
       transform="matrix(0,-1,-1,0,0,0)"
       y="-466.72495"
       x="-229.81677"
       height="4.5720005"
       width="14.732"
       id="rect79"
       style="fill:#00ff00;fill-opacity:1;fill-rule:nonzero;stroke:none;stroke-width:0.127;stroke-linecap:round;stroke-linejoin:miter;stroke-miterlimit:4;stroke-dasharray:none;stroke-dashoffset:0;stroke-opacity:1;paint-order:fill markers stroke" />
    <rect
       y="371.29498"
       x="284.47992"
       height="3.8097792"
       width="17.780001"
       id="rect87"
       style="opacity:1;fill:#d40000;fill-opacity:1;fill-rule:nonzero;stroke:none;stroke-width:0.109982;stroke-linecap:round;stroke-linejoin:miter;stroke-miterlimit:4;stroke-dasharray:none;stroke-dashoffset:0;stroke-opacity:1;paint-order:fill markers stroke" />
    <rect
       style="opacity:1;fill:#d40000;fill-opacity:1;fill-rule:nonzero;stroke:none;stroke-width:0.109982;stroke-linecap:round;stroke-linejoin:miter;stroke-miterlimit:4;stroke-dasharray:none;stroke-dashoffset:0;stroke-opacity:1;paint-order:fill markers stroke"
       id="rect896"
       width="17.780001"
       height="3.8097792"
       x="264.15988"
       y="371.29498" />
    <text
       id="text900"
       y="369.51022"
       x="273.03717"
       style="font-style:normal;font-variant:normal;font-weight:500;font-stretch:normal;font-size:4.23333px;line-height:125%;font-family:'Microgramma D Extended';-inkscape-font-specification:'Microgramma D Extended Medium';text-align:center;letter-spacing:0px;word-spacing:0px;text-anchor:middle;fill:#ffff00;fill-opacity:1;stroke:none;stroke-width:0.264583px;stroke-linecap:butt;stroke-linejoin:miter;stroke-opacity:1"
       xml:space="preserve"><tspan
         style="font-style:normal;font-variant:normal;font-weight:500;font-stretch:normal;font-size:4.23333px;font-family:'Microgramma D Extended';-inkscape-font-specification:'Microgramma D Extended Medium';text-align:center;text-anchor:middle;fill:#ffff00;stroke-width:0.264583px"
         y="369.51022"
         x="273.03717"
         id="tspan898"
         sodipodi:role="line">port 0</tspan></text>
    <text
       xml:space="preserve"
       style="font-style:normal;font-variant:normal;font-weight:500;font-stretch:normal;font-size:4.23333px;line-height:125%;font-family:'Microgramma D Extended';-inkscape-font-specification:'Microgramma D Extended Medium';text-align:center;letter-spacing:0px;word-spacing:0px;text-anchor:middle;fill:#ffff00;fill-opacity:1;stroke:none;stroke-width:0.264583px;stroke-linecap:butt;stroke-linejoin:miter;stroke-opacity:1"
       x="293.89914"
       y="369.51022"
       id="text904"><tspan
         id="tspan906"
         sodipodi:role="line"
         x="293.89914"
         y="369.51022"
         style="font-style:normal;font-variant:normal;font-weight:500;font-stretch:normal;font-size:4.23333px;font-family:'Microgramma D Extended';-inkscape-font-specification:'Microgramma D Extended Medium';text-align:center;text-anchor:middle;fill:#ffff00;stroke-width:0.264583px">port 1</tspan></text>
    <rect
       inkscape:transform-center-y="-9.2810656"
       inkscape:transform-center-x="2.4555437"
       y="371.29498"
       x="219.70992"
       height="3.8182936"
       width="12.7"
       id="rect910"
       style="opacity:1;fill:#d40000;fill-opacity:1;fill-rule:nonzero;stroke:none;stroke-width:0.110105;stroke-linecap:round;stroke-linejoin:miter;stroke-miterlimit:4;stroke-dasharray:none;stroke-dashoffset:0;stroke-opacity:1;paint-order:fill markers stroke" />
    <text
       xml:space="preserve"
       style="font-style:normal;font-variant:normal;font-weight:500;font-stretch:normal;font-size:4.23333px;line-height:125%;font-family:'Microgramma D Extended';-inkscape-font-specification:'Microgramma D Extended Medium';text-align:center;letter-spacing:0px;word-spacing:0px;text-anchor:middle;fill:#ffff00;fill-opacity:1;stroke:none;stroke-width:0.264583px;stroke-linecap:butt;stroke-linejoin:miter;stroke-opacity:1"
       x="226.09554"
       y="369.51022"
       id="text914"><tspan
         sodipodi:role="line"
         id="tspan912"
         x="226.09554"
         y="369.51022"
         style="font-style:normal;font-variant:normal;font-weight:500;font-stretch:normal;font-size:4.23333px;font-family:'Microgramma D Extended';-inkscape-font-specification:'Microgramma D Extended Medium';text-align:center;text-anchor:middle;fill:#ffff00;stroke-width:0.264583px">analog</tspan></text>
    <path
       style="fill:#008000;fill-opacity:1;fill-rule:nonzero;stroke:none;stroke-width:0.127;stroke-linecap:round;stroke-linejoin:miter;stroke-miterlimit:4;stroke-dasharray:none;stroke-dashoffset:0;stroke-opacity:1;paint-order:fill markers stroke"
       d="m 343.78892,169.99977 v 19.05 c 0,4.22148 3.39852,7.62 7.62,7.62 h 113.03 c 4.22148,0 7.62,-3.39852 7.62,-7.62 v -16.51 c 0,-1.905 -1.27,-3.175 -3.175,-3.175 h -81.28 c -2.54,0 -2.54,-6.985 -5.08,-6.985 h -31.115 c -4.22148,0 -7.62,3.39852 -7.62,7.62 z"
       id="path73"
       inkscape:connector-curvature="0"
       sodipodi:nodetypes="sssssssccss" />
    <rect
       transform="rotate(-90)"
       y="356.10794"
       x="-194.19328"
       height="103.632"
       width="4.572"
       id="rect287"
       style="fill:#00ff00;fill-opacity:1;fill-rule:nonzero;stroke:none;stroke-width:0.128802;stroke-linecap:round;stroke-linejoin:miter;stroke-miterlimit:4;stroke-dasharray:none;stroke-dashoffset:0;stroke-opacity:1;paint-order:fill markers stroke" />
    <rect
       transform="rotate(-90)"
       y="465.01047"
       x="-186.89078"
       height="4.5720005"
       width="14.732"
       id="rect108"
       style="fill:#00ff00;fill-opacity:1;fill-rule:nonzero;stroke:none;stroke-width:0.127;stroke-linecap:round;stroke-linejoin:miter;stroke-miterlimit:4;stroke-dasharray:none;stroke-dashoffset:0;stroke-opacity:1;paint-order:fill markers stroke" />
    <rect
       transform="rotate(-90)"
       style="fill:#00ff00;fill-opacity:1;fill-rule:nonzero;stroke:none;stroke-width:0.128802;stroke-linecap:round;stroke-linejoin:miter;stroke-miterlimit:4;stroke-dasharray:none;stroke-dashoffset:0;stroke-opacity:1;paint-order:fill markers stroke"
       id="rect110"
       width="4.572"
       height="24.892"
       x="-169.42828"
       y="356.10794" />
    <rect
       transform="rotate(-90)"
       style="fill:#00ff00;fill-opacity:1;fill-rule:nonzero;stroke:none;stroke-width:0.127;stroke-linecap:round;stroke-linejoin:miter;stroke-miterlimit:4;stroke-dasharray:none;stroke-dashoffset:0;stroke-opacity:1;paint-order:fill markers stroke"
       id="rect112"
       width="14.732"
       height="4.5720005"
       x="-186.89078"
       y="346.26544" />
    <rect
       transform="matrix(0,1,1,0,0,0)"
       y="354.58392"
       x="171.90477"
       height="27.305002"
       width="12.700001"
       id="rect81"
       style="fill:#ff00ff;fill-opacity:1;fill-rule:nonzero;stroke:none;stroke-width:0.127;stroke-linecap:round;stroke-linejoin:miter;stroke-miterlimit:4;stroke-dasharray:none;stroke-dashoffset:0;stroke-opacity:1;paint-order:fill markers stroke" />
    <text
       xml:space="preserve"
       style="font-style:normal;font-variant:normal;font-weight:500;font-stretch:normal;font-size:4.23333px;line-height:125%;font-family:'Microgramma D Extended';-inkscape-font-specification:'Microgramma D Extended Medium';letter-spacing:0px;word-spacing:0px;fill:#ffcc00;fill-opacity:1;stroke:none;stroke-width:0.264583px;stroke-linecap:butt;stroke-linejoin:miter;stroke-opacity:1"
       x="351.79129"
       y="188.49521"
       id="text909"><tspan
         id="tspan911"
         sodipodi:role="line"
         x="351.79129"
         y="188.49521"
         style="font-style:normal;font-variant:normal;font-weight:500;font-stretch:normal;font-size:4.23333px;font-family:'Microgramma D Extended';-inkscape-font-specification:'Microgramma D Extended Medium';fill:#ffcc00;stroke-width:0.264583px">port 2   port 3</tspan></text>
    <rect
       y="342.59259"
       x="145.41487"
       height="2.7940001"
       width="2.7940001"
       id="rect109"
       style="opacity:1;fill:#ff6600;fill-opacity:1;fill-rule:nonzero;stroke:none;stroke-width:0.127;stroke-linecap:round;stroke-linejoin:miter;stroke-miterlimit:4;stroke-dasharray:none;stroke-dashoffset:0;stroke-opacity:1;paint-order:fill markers stroke" />
    <text
       id="text276"
       y="188.37219"
       x="85.326477"
       style="font-style:normal;font-weight:normal;font-size:10.5833px;line-height:1.25;font-family:sans-serif;text-align:end;text-anchor:end;fill:#000000;fill-opacity:1;stroke:none;stroke-width:0.264583"
       xml:space="preserve"><tspan
         style="text-align:end;text-anchor:end;stroke-width:0.264583"
         y="188.37219"
         x="85.326477"
         id="tspan274"
         sodipodi:role="line">Bottom</tspan><tspan
         id="tspan298"
         style="text-align:end;text-anchor:end;stroke-width:0.264583"
         y="201.60132"
         x="85.326477"
         sodipodi:role="line">Holes are M2.5</tspan><tspan
         style="text-align:end;text-anchor:end;stroke-width:0.264583"
         y="214.83044"
         x="85.326477"
         sodipodi:role="line"
         id="tspan103">Use 5mm+5mm</tspan><tspan
         style="text-align:end;text-anchor:end;stroke-width:0.264583"
         y="228.05957"
         x="85.326477"
         sodipodi:role="line"
         id="tspan105">hex standoffs</tspan></text>
    <text
       id="text280"
       y="305.21219"
       x="58.677025"
       style="font-style:normal;font-weight:normal;font-size:10.5833px;line-height:1.25;font-family:sans-serif;fill:#000000;fill-opacity:1;stroke:none;stroke-width:0.264583"
       xml:space="preserve"><tspan
         style="stroke-width:0.264583"
         y="305.21219"
         x="58.677025"
         id="tspan278"
         sodipodi:role="line">Front</tspan></text>
    <text
       id="text284"
       y="339.78775"
       x="62.283806"
       style="font-style:normal;font-weight:normal;font-size:10.5833px;line-height:1.25;font-family:sans-serif;fill:#000000;fill-opacity:1;stroke:none;stroke-width:0.264583"
       xml:space="preserve"><tspan
         style="stroke-width:0.264583"
         y="339.78775"
         x="62.283806"
         id="tspan282"
         sodipodi:role="line">Top</tspan></text>
    <text
       id="text288"
       y="372.40479"
       x="57.934803"
       style="font-style:normal;font-weight:normal;font-size:10.5833px;line-height:1.25;font-family:sans-serif;fill:#000000;fill-opacity:1;stroke:none;stroke-width:0.264583"
       xml:space="preserve"><tspan
         style="stroke-width:0.264583"
         y="372.40479"
         x="57.934803"
         id="tspan286"
         sodipodi:role="line">Back</tspan></text>
    <text
       id="text292"
       y="179.52498"
       x="477.52002"
       style="font-style:normal;font-weight:normal;font-size:10.5833px;line-height:1.25;font-family:sans-serif;fill:#000000;fill-opacity:1;stroke:none;stroke-width:0.264583"
       xml:space="preserve"><tspan
         style="stroke-width:0.264583"
         y="179.52498"
         x="477.52002"
         id="tspan290"
         sodipodi:role="line">Left</tspan></text>
    <text
       id="text296"
       y="223.09245"
       x="476.48648"
       style="font-style:normal;font-weight:normal;font-size:10.5833px;line-height:1.25;font-family:sans-serif;fill:#000000;fill-opacity:1;stroke:none;stroke-width:0.264583"
       xml:space="preserve"><tspan
         style="stroke-width:0.264583"
         y="223.09245"
         x="476.48648"
         id="tspan294"
         sodipodi:role="line">Right</tspan></text>
    <text
       id="text302"
       y="332.56"
       x="340.36002"
       style="font-style:normal;font-weight:normal;font-size:10.5833px;line-height:1.25;font-family:sans-serif;fill:#000000;fill-opacity:1;stroke:none;stroke-width:0.264583"
       xml:space="preserve"><tspan
         style="stroke-width:0.264583"
         y="332.56"
         x="340.36002"
         id="tspan300"
         sodipodi:role="line">Text engraves: 1000/FULL</tspan></text>
    <rect
       y="391.9071"
       x="208.66101"
       height="3.2258"
       width="17.018"
       id="rect2660"
       style="fill:#ff00ff;stroke:none;stroke-width:0.0628693" />
    <path
       sodipodi:nodetypes="ccccccc"
       inkscape:connector-curvature="0"
       d="m 276.86001,392.50399 4.445,0.381 10.795,-0.0254 v 3.175 l -10.795,0.0254 -4.445,0.381 z"
       style="fill:#d45500;stroke:none;stroke-width:0.0590243"
       id="rect2662" />
    <text
       xml:space="preserve"
       style="font-style:normal;font-weight:normal;font-size:10.5833px;line-height:1.25;font-family:sans-serif;fill:#000000;fill-opacity:1;stroke:none;stroke-width:0.264583"
       x="129.54001"
       y="406.60745"
       id="text2670"><tspan
         sodipodi:role="line"
         id="tspan2668"
         x="129.54001"
         y="406.60745"
         style="stroke-width:0.264583">Power LED light pipe</tspan><tspan
         id="tspan2672"
         sodipodi:role="line"
         x="129.54001"
         y="419.83658"
         style="stroke-width:0.264583">Medium clear acrylic</tspan></text>
    <text
       id="text2678"
       y="411.72083"
       x="260.58649"
       style="font-style:normal;font-weight:normal;font-size:10.5833px;line-height:1.25;font-family:sans-serif;fill:#000000;fill-opacity:1;stroke:none;stroke-width:0.264583"
       xml:space="preserve"><tspan
         style="stroke-width:0.264583"
         y="411.72083"
         x="260.58649"
         sodipodi:role="line"
         id="tspan2676">Reset button</tspan><tspan
         id="tspan2682"
         style="stroke-width:0.264583"
         y="424.94995"
         x="260.58649"
         sodipodi:role="line">Medium black acrylic</tspan></text>
  </g>
  <g
     style="display:none"
     inkscape:label="m3 1.0 mounting holes"
     id="layer2"
     inkscape:groupmode="layer">
    <ellipse
       transform="matrix(0.99999999,0,0,-0.99999999,0,-144.59998)"
       ry="1.27"
       rx="1.2700001"
       cy="-182.06502"
       cx="53.34"
       id="path842"
       style="opacity:1;fill:#ff0000;fill-opacity:1;fill-rule:nonzero;stroke:none;stroke-width:0.127;stroke-linecap:round;stroke-linejoin:miter;stroke-miterlimit:4;stroke-dasharray:none;stroke-dashoffset:0;stroke-opacity:1;paint-order:fill markers stroke" />
    <ellipse
       transform="matrix(0.99999999,0,0,-0.99999999,0,-144.59998)"
       style="opacity:1;fill:#ff0000;fill-opacity:1;fill-rule:nonzero;stroke:none;stroke-width:0.127;stroke-linecap:round;stroke-linejoin:miter;stroke-miterlimit:4;stroke-dasharray:none;stroke-dashoffset:0;stroke-opacity:1;paint-order:fill markers stroke"
       id="ellipse844"
       cx="151.13"
       cy="-188.41501"
       rx="1.2700001"
       ry="1.27" />
    <ellipse
       transform="matrix(0.99999999,0,0,-0.99999999,0,-144.59998)"
       ry="1.27"
       rx="1.2700001"
       cy="-182.70001"
       cx="234.95001"
       id="ellipse846"
       style="opacity:1;fill:#ff0000;fill-opacity:1;fill-rule:nonzero;stroke:none;stroke-width:0.127;stroke-linecap:round;stroke-linejoin:miter;stroke-miterlimit:4;stroke-dasharray:none;stroke-dashoffset:0;stroke-opacity:1;paint-order:fill markers stroke" />
    <ellipse
       transform="matrix(0.99999999,0,0,-0.99999999,0,-144.59998)"
       style="opacity:1;fill:#ff0000;fill-opacity:1;fill-rule:nonzero;stroke:none;stroke-width:0.127;stroke-linecap:round;stroke-linejoin:miter;stroke-miterlimit:4;stroke-dasharray:none;stroke-dashoffset:0;stroke-opacity:1;paint-order:fill markers stroke"
       id="ellipse848"
       cx="50.800003"
       cy="-223.34001"
       rx="1.2700001"
       ry="1.27" />
    <ellipse
       transform="matrix(0.99999999,0,0,-0.99999999,0,-144.59998)"
       ry="1.27"
       rx="1.2700001"
       cy="-223.34001"
       cx="227.33"
       id="ellipse850"
       style="opacity:1;fill:#ff0000;fill-opacity:1;fill-rule:nonzero;stroke:none;stroke-width:0.127;stroke-linecap:round;stroke-linejoin:miter;stroke-miterlimit:4;stroke-dasharray:none;stroke-dashoffset:0;stroke-opacity:1;paint-order:fill markers stroke" />
    <ellipse
       transform="matrix(0.99999999,0,0,-0.99999999,0,-144.59998)"
       style="opacity:1;fill:#ff0000;fill-opacity:1;fill-rule:nonzero;stroke:none;stroke-width:0.127;stroke-linecap:round;stroke-linejoin:miter;stroke-miterlimit:4;stroke-dasharray:none;stroke-dashoffset:0;stroke-opacity:1;paint-order:fill markers stroke"
       id="ellipse852"
       cx="61.595001"
       cy="-261.44"
       rx="1.2700001"
       ry="1.27" />
    <ellipse
       transform="matrix(0.99999999,0,0,-0.99999999,0,-144.59998)"
       ry="1.27"
       rx="1.2700001"
       cy="-261.44"
       cx="114.3"
       id="ellipse854"
       style="opacity:1;fill:#ff0000;fill-opacity:1;fill-rule:nonzero;stroke:none;stroke-width:0.127;stroke-linecap:round;stroke-linejoin:miter;stroke-miterlimit:4;stroke-dasharray:none;stroke-dashoffset:0;stroke-opacity:1;paint-order:fill markers stroke" />
    <ellipse
       transform="matrix(0.99999999,0,0,-0.99999999,0,-144.59998)"
       style="opacity:1;fill:#ff0000;fill-opacity:1;fill-rule:nonzero;stroke:none;stroke-width:0.127;stroke-linecap:round;stroke-linejoin:miter;stroke-miterlimit:4;stroke-dasharray:none;stroke-dashoffset:0;stroke-opacity:1;paint-order:fill markers stroke"
       id="ellipse856"
       cx="149.86"
       cy="-261.44"
       rx="1.2700001"
       ry="1.27" />
  </g>
  <g
     inkscape:label="m2.5 1.1 mounting holes"
     id="layer3"
     inkscape:groupmode="layer">
    <ellipse
       ry="1.0159999"
       rx="1.016"
       cy="-48.259823"
       cx="224.7899"
       id="ellipse90"
       style="opacity:1;fill:#800000;fill-opacity:1;fill-rule:nonzero;stroke:none;stroke-width:0.127;stroke-linecap:round;stroke-linejoin:miter;stroke-miterlimit:4;stroke-dasharray:none;stroke-dashoffset:0;stroke-opacity:1;paint-order:fill markers stroke"
       transform="scale(1,-1)" />
    <ellipse
       transform="scale(1,-1)"
       style="opacity:1;fill:#800000;fill-opacity:1;fill-rule:nonzero;stroke:none;stroke-width:0.127;stroke-linecap:round;stroke-linejoin:miter;stroke-miterlimit:4;stroke-dasharray:none;stroke-dashoffset:0;stroke-opacity:1;paint-order:fill markers stroke"
       id="ellipse93"
       cx="307.97491"
       cy="-40.639824"
       rx="1.016"
       ry="1.0159999" />
    <ellipse
       transform="scale(1,-1)"
       style="opacity:1;fill:#800000;fill-opacity:1;fill-rule:nonzero;stroke:none;stroke-width:0.127;stroke-linecap:round;stroke-linejoin:miter;stroke-miterlimit:4;stroke-dasharray:none;stroke-dashoffset:0;stroke-opacity:1;paint-order:fill markers stroke"
       id="ellipse95"
       cx="127.6349"
       cy="-40.639824"
       rx="1.016"
       ry="1.0159999" />
    <ellipse
       transform="scale(1,-1)"
       style="opacity:1;fill:#800000;fill-opacity:1;fill-rule:nonzero;stroke:none;stroke-width:0.127;stroke-linecap:round;stroke-linejoin:miter;stroke-miterlimit:4;stroke-dasharray:none;stroke-dashoffset:0;stroke-opacity:1;paint-order:fill markers stroke"
       id="ellipse97"
       cx="212.7249"
       cy="-73.659821"
       rx="1.016"
       ry="1.0159999" />
    <ellipse
       transform="scale(1,-1)"
       style="opacity:1;fill:#800000;fill-opacity:1;fill-rule:nonzero;stroke:none;stroke-width:0.127;stroke-linecap:round;stroke-linejoin:miter;stroke-miterlimit:4;stroke-dasharray:none;stroke-dashoffset:0;stroke-opacity:1;paint-order:fill markers stroke"
       id="ellipse99"
       cx="307.97491"
       cy="-73.659821"
       rx="1.016"
       ry="1.0159999" />
    <ellipse
       transform="scale(1,-1)"
       style="opacity:1;fill:#800000;fill-opacity:1;fill-rule:nonzero;stroke:none;stroke-width:0.127;stroke-linecap:round;stroke-linejoin:miter;stroke-miterlimit:4;stroke-dasharray:none;stroke-dashoffset:0;stroke-opacity:1;paint-order:fill markers stroke"
       id="ellipse101"
       cx="117.47491"
       cy="-73.659821"
       rx="1.016"
       ry="1.0159999" />
    <ellipse
       transform="scale(1,-1)"
       style="opacity:1;fill:#800000;fill-opacity:1;fill-rule:nonzero;stroke:none;stroke-width:0.127;stroke-linecap:round;stroke-linejoin:miter;stroke-miterlimit:4;stroke-dasharray:none;stroke-dashoffset:0;stroke-opacity:1;paint-order:fill markers stroke"
       id="ellipse103"
       cx="136.5249"
       cy="-111.75983"
       rx="1.016"
       ry="1.0159999" />
    <ellipse
       transform="scale(1,-1)"
       style="opacity:1;fill:#800000;fill-opacity:1;fill-rule:nonzero;stroke:none;stroke-width:0.127;stroke-linecap:round;stroke-linejoin:miter;stroke-miterlimit:4;stroke-dasharray:none;stroke-dashoffset:0;stroke-opacity:1;paint-order:fill markers stroke"
       id="ellipse105"
       cx="212.7249"
       cy="-111.75983"
       rx="1.016"
       ry="1.0159999" />
    <ellipse
       transform="scale(1,-1)"
       style="opacity:1;fill:#800000;fill-opacity:1;fill-rule:nonzero;stroke:none;stroke-width:0.127;stroke-linecap:round;stroke-linejoin:miter;stroke-miterlimit:4;stroke-dasharray:none;stroke-dashoffset:0;stroke-opacity:1;paint-order:fill markers stroke"
       id="ellipse107"
       cx="307.97491"
       cy="-111.75983"
       rx="1.016"
       ry="1.0159999" />
  </g>
</svg>
